<mxfile host="app.diagrams.net" modified="2022-07-19T10:01:39.737Z" agent="5.0 (X11; Linux x86_64) AppleWebKit/537.36 (KHTML, like Gecko) Chrome/103.0.5060.53 Safari/537.36" etag="mjQ-EWZyLQHel_2Pk1v5" version="18.0.2" type="github">
  <diagram id="MRfBN73VTw00yK5iwEvO" name="Page-1">
    <mxGraphModel dx="3375" dy="1840" grid="1" gridSize="10" guides="1" tooltips="1" connect="1" arrows="1" fold="1" page="1" pageScale="1" pageWidth="827" pageHeight="1169" math="0" shadow="0">
      <root>
        <mxCell id="0" />
        <mxCell id="1" parent="0" />
        <mxCell id="YsGYTtXpXToWJOdHxNEK-1" value="" style="points=[[0.35,0,0],[0.98,0.51,0],[1,0.71,0],[0.67,1,0],[0,0.795,0],[0,0.65,0]];verticalLabelPosition=bottom;sketch=0;html=1;verticalAlign=top;aspect=fixed;align=center;pointerEvents=1;shape=mxgraph.cisco19.user;fillColor=#005073;strokeColor=none;" vertex="1" parent="1">
          <mxGeometry x="10" y="31.130000000000003" width="67.75" height="67.75" as="geometry" />
        </mxCell>
        <mxCell id="YsGYTtXpXToWJOdHxNEK-2" value="" style="outlineConnect=0;dashed=0;verticalLabelPosition=bottom;verticalAlign=top;align=center;html=1;shape=mxgraph.aws3.route_53;fillColor=#F58536;gradientColor=none;" vertex="1" parent="1">
          <mxGeometry x="383" y="21.13" width="80" height="87.75" as="geometry" />
        </mxCell>
        <mxCell id="YsGYTtXpXToWJOdHxNEK-3" value="" style="outlineConnect=0;dashed=0;verticalLabelPosition=bottom;verticalAlign=top;align=center;html=1;shape=mxgraph.aws3.cloudfront;fillColor=#F58536;gradientColor=none;" vertex="1" parent="1">
          <mxGeometry x="739" y="18.50999999999999" width="76.5" height="93" as="geometry" />
        </mxCell>
        <mxCell id="YsGYTtXpXToWJOdHxNEK-10" value="eu-west-1" style="shape=mxgraph.ibm.box;prType=region;fontStyle=0;verticalAlign=top;align=left;spacingLeft=32;spacingTop=4;fillColor=none;rounded=0;whiteSpace=wrap;html=1;strokeColor=#919191;strokeWidth=2;dashed=0;container=1;spacing=-4;collapsible=0;expand=0;recursiveResize=0;" vertex="1" parent="1">
          <mxGeometry x="20" y="130" width="2360" height="1920" as="geometry" />
        </mxCell>
        <mxCell id="YsGYTtXpXToWJOdHxNEK-11" value="172.17.0.0/16" style="points=[[0,0],[0.25,0],[0.5,0],[0.75,0],[1,0],[1,0.25],[1,0.5],[1,0.75],[1,1],[0.75,1],[0.5,1],[0.25,1],[0,1],[0,0.75],[0,0.5],[0,0.25]];outlineConnect=0;gradientColor=none;html=1;whiteSpace=wrap;fontSize=12;fontStyle=0;container=1;pointerEvents=0;collapsible=0;recursiveResize=0;shape=mxgraph.aws4.group;grIcon=mxgraph.aws4.group_vpc;strokeColor=#248814;fillColor=none;verticalAlign=top;align=left;spacingLeft=30;fontColor=#AAB7B8;dashed=0;" vertex="1" parent="YsGYTtXpXToWJOdHxNEK-10">
          <mxGeometry x="30" y="33" width="2240" height="1837" as="geometry" />
        </mxCell>
        <mxCell id="YsGYTtXpXToWJOdHxNEK-12" value="Public subnet" style="points=[[0,0],[0.25,0],[0.5,0],[0.75,0],[1,0],[1,0.25],[1,0.5],[1,0.75],[1,1],[0.75,1],[0.5,1],[0.25,1],[0,1],[0,0.75],[0,0.5],[0,0.25]];outlineConnect=0;gradientColor=none;html=1;whiteSpace=wrap;fontSize=12;fontStyle=0;container=1;pointerEvents=0;collapsible=0;recursiveResize=0;shape=mxgraph.aws4.group;grIcon=mxgraph.aws4.group_security_group;grStroke=0;strokeColor=#248814;fillColor=#E9F3E6;verticalAlign=top;align=left;spacingLeft=30;fontColor=#248814;dashed=0;" vertex="1" parent="YsGYTtXpXToWJOdHxNEK-11">
          <mxGeometry x="31" y="32" width="329" height="148" as="geometry" />
        </mxCell>
        <mxCell id="YsGYTtXpXToWJOdHxNEK-13" value="Private subnet" style="points=[[0,0],[0.25,0],[0.5,0],[0.75,0],[1,0],[1,0.25],[1,0.5],[1,0.75],[1,1],[0.75,1],[0.5,1],[0.25,1],[0,1],[0,0.75],[0,0.5],[0,0.25]];outlineConnect=0;gradientColor=none;html=1;whiteSpace=wrap;fontSize=12;fontStyle=0;container=1;pointerEvents=0;collapsible=0;recursiveResize=0;shape=mxgraph.aws4.group;grIcon=mxgraph.aws4.group_security_group;grStroke=0;strokeColor=#147EBA;fillColor=#E6F2F8;verticalAlign=top;align=left;spacingLeft=30;fontColor=#147EBA;dashed=0;" vertex="1" parent="YsGYTtXpXToWJOdHxNEK-11">
          <mxGeometry x="31" y="229" width="2159" height="1181" as="geometry" />
        </mxCell>
        <mxCell id="YsGYTtXpXToWJOdHxNEK-20" value="" style="swimlane;startSize=0;" vertex="1" parent="YsGYTtXpXToWJOdHxNEK-13">
          <mxGeometry x="358" y="47" width="1742" height="1063" as="geometry" />
        </mxCell>
        <mxCell id="YsGYTtXpXToWJOdHxNEK-21" value="" style="swimlane;startSize=0;dashed=1;" vertex="1" parent="YsGYTtXpXToWJOdHxNEK-20">
          <mxGeometry x="100" y="88" width="390" height="411" as="geometry">
            <mxRectangle x="100" y="88" width="50" height="40" as="alternateBounds" />
          </mxGeometry>
        </mxCell>
        <mxCell id="YsGYTtXpXToWJOdHxNEK-26" value="" style="sketch=0;outlineConnect=0;fontColor=#232F3E;gradientColor=none;fillColor=#D45B07;strokeColor=none;dashed=0;verticalLabelPosition=bottom;verticalAlign=top;align=center;html=1;fontSize=12;fontStyle=0;aspect=fixed;pointerEvents=1;shape=mxgraph.aws4.ecs_service;" vertex="1" parent="YsGYTtXpXToWJOdHxNEK-21">
          <mxGeometry x="180" y="73" width="47.94" height="59" as="geometry" />
        </mxCell>
        <mxCell id="YsGYTtXpXToWJOdHxNEK-32" value="" style="sketch=0;outlineConnect=0;fontColor=#232F3E;gradientColor=none;fillColor=#D45B07;strokeColor=none;dashed=0;verticalLabelPosition=bottom;verticalAlign=top;align=center;html=1;fontSize=12;fontStyle=0;aspect=fixed;pointerEvents=1;shape=mxgraph.aws4.ecs_service;" vertex="1" parent="YsGYTtXpXToWJOdHxNEK-21">
          <mxGeometry x="63" y="192" width="49.97" height="61.5" as="geometry" />
        </mxCell>
        <mxCell id="YsGYTtXpXToWJOdHxNEK-33" value="" style="sketch=0;outlineConnect=0;fontColor=#232F3E;gradientColor=none;fillColor=#D45B07;strokeColor=none;dashed=0;verticalLabelPosition=bottom;verticalAlign=top;align=center;html=1;fontSize=12;fontStyle=0;aspect=fixed;pointerEvents=1;shape=mxgraph.aws4.ecs_service;" vertex="1" parent="YsGYTtXpXToWJOdHxNEK-21">
          <mxGeometry x="180" y="188" width="49.97" height="61.5" as="geometry" />
        </mxCell>
        <mxCell id="YsGYTtXpXToWJOdHxNEK-37" value="" style="sketch=0;outlineConnect=0;fontColor=#232F3E;gradientColor=none;fillColor=#D45B07;strokeColor=none;dashed=0;verticalLabelPosition=bottom;verticalAlign=top;align=center;html=1;fontSize=12;fontStyle=0;aspect=fixed;pointerEvents=1;shape=mxgraph.aws4.ecs_service;" vertex="1" parent="YsGYTtXpXToWJOdHxNEK-21">
          <mxGeometry x="181" y="311" width="49.97" height="61.5" as="geometry" />
        </mxCell>
        <mxCell id="YsGYTtXpXToWJOdHxNEK-34" value="" style="sketch=0;outlineConnect=0;fontColor=#232F3E;gradientColor=none;fillColor=#D45B07;strokeColor=none;dashed=0;verticalLabelPosition=bottom;verticalAlign=top;align=center;html=1;fontSize=12;fontStyle=0;aspect=fixed;pointerEvents=1;shape=mxgraph.aws4.ecs_service;" vertex="1" parent="YsGYTtXpXToWJOdHxNEK-21">
          <mxGeometry x="291" y="188" width="49.97" height="61.5" as="geometry" />
        </mxCell>
        <mxCell id="YsGYTtXpXToWJOdHxNEK-102" value="" style="swimlane;startSize=0;dashed=1;" vertex="1" parent="YsGYTtXpXToWJOdHxNEK-21">
          <mxGeometry x="41" y="47" width="90" height="115" as="geometry" />
        </mxCell>
        <mxCell id="YsGYTtXpXToWJOdHxNEK-110" value="api-env-prod" style="text;html=1;strokeColor=none;fillColor=none;align=center;verticalAlign=middle;whiteSpace=wrap;rounded=0;dashed=1;" vertex="1" parent="YsGYTtXpXToWJOdHxNEK-102">
          <mxGeometry x="8.98" y="85" width="75.02" height="30" as="geometry" />
        </mxCell>
        <mxCell id="YsGYTtXpXToWJOdHxNEK-103" value="" style="swimlane;startSize=0;dashed=1;" vertex="1" parent="YsGYTtXpXToWJOdHxNEK-21">
          <mxGeometry x="159.47000000000003" y="47" width="89" height="115" as="geometry" />
        </mxCell>
        <mxCell id="YsGYTtXpXToWJOdHxNEK-111" value="IMS-prod" style="text;html=1;strokeColor=none;fillColor=none;align=center;verticalAlign=middle;whiteSpace=wrap;rounded=0;dashed=1;" vertex="1" parent="YsGYTtXpXToWJOdHxNEK-103">
          <mxGeometry x="6.990000000000009" y="85" width="75.02" height="30" as="geometry" />
        </mxCell>
        <mxCell id="YsGYTtXpXToWJOdHxNEK-105" value="" style="swimlane;startSize=0;dashed=1;" vertex="1" parent="YsGYTtXpXToWJOdHxNEK-21">
          <mxGeometry x="41" y="173.25" width="89" height="111" as="geometry" />
        </mxCell>
        <mxCell id="YsGYTtXpXToWJOdHxNEK-106" value="" style="swimlane;startSize=0;dashed=1;" vertex="1" parent="YsGYTtXpXToWJOdHxNEK-21">
          <mxGeometry x="160.49" y="173.25" width="89" height="111" as="geometry" />
        </mxCell>
        <mxCell id="YsGYTtXpXToWJOdHxNEK-114" value="db-worker-prod" style="text;html=1;strokeColor=none;fillColor=none;align=center;verticalAlign=middle;whiteSpace=wrap;rounded=0;dashed=1;" vertex="1" parent="YsGYTtXpXToWJOdHxNEK-106">
          <mxGeometry x="13.48" y="80.25" width="66.52" height="30" as="geometry" />
        </mxCell>
        <mxCell id="YsGYTtXpXToWJOdHxNEK-108" value="" style="swimlane;startSize=0;dashed=1;" vertex="1" parent="YsGYTtXpXToWJOdHxNEK-21">
          <mxGeometry x="161.48000000000002" y="293" width="89" height="111" as="geometry" />
        </mxCell>
        <mxCell id="YsGYTtXpXToWJOdHxNEK-117" value="redis-prod" style="text;html=1;strokeColor=none;fillColor=none;align=center;verticalAlign=middle;whiteSpace=wrap;rounded=0;dashed=1;" vertex="1" parent="YsGYTtXpXToWJOdHxNEK-108">
          <mxGeometry x="8.240000000000009" y="79.5" width="75.02" height="30" as="geometry" />
        </mxCell>
        <mxCell id="YsGYTtXpXToWJOdHxNEK-109" value="" style="swimlane;startSize=0;dashed=1;" vertex="1" parent="YsGYTtXpXToWJOdHxNEK-21">
          <mxGeometry x="271.48" y="174.25" width="90" height="105.75" as="geometry" />
        </mxCell>
        <mxCell id="YsGYTtXpXToWJOdHxNEK-115" value="db-watcher-prod" style="text;html=1;strokeColor=none;fillColor=none;align=center;verticalAlign=middle;whiteSpace=wrap;rounded=0;dashed=1;" vertex="1" parent="YsGYTtXpXToWJOdHxNEK-109">
          <mxGeometry x="-4.01" y="78.75" width="100" height="30" as="geometry" />
        </mxCell>
        <mxCell id="YsGYTtXpXToWJOdHxNEK-75" value="" style="swimlane;startSize=0;dashed=1;" vertex="1" parent="YsGYTtXpXToWJOdHxNEK-20">
          <mxGeometry x="110" y="561" width="420" height="411" as="geometry">
            <mxRectangle x="100" y="87" width="50" height="40" as="alternateBounds" />
          </mxGeometry>
        </mxCell>
        <mxCell id="YsGYTtXpXToWJOdHxNEK-78" value="" style="sketch=0;outlineConnect=0;fontColor=#232F3E;gradientColor=none;fillColor=#D45B07;strokeColor=none;dashed=0;verticalLabelPosition=bottom;verticalAlign=top;align=center;html=1;fontSize=12;fontStyle=0;aspect=fixed;pointerEvents=1;shape=mxgraph.aws4.ecs_service;" vertex="1" parent="YsGYTtXpXToWJOdHxNEK-75">
          <mxGeometry x="183" y="50" width="47.94" height="59" as="geometry" />
        </mxCell>
        <mxCell id="YsGYTtXpXToWJOdHxNEK-142" value="" style="swimlane;startSize=0;dashed=1;" vertex="1" parent="YsGYTtXpXToWJOdHxNEK-75">
          <mxGeometry x="31.970000000000027" y="30" width="89" height="111" as="geometry" />
        </mxCell>
        <mxCell id="YsGYTtXpXToWJOdHxNEK-143" value="grafana" style="text;html=1;strokeColor=none;fillColor=none;align=center;verticalAlign=middle;whiteSpace=wrap;rounded=0;dashed=1;" vertex="1" parent="YsGYTtXpXToWJOdHxNEK-142">
          <mxGeometry x="8.5" y="81.5" width="75.02" height="30" as="geometry" />
        </mxCell>
        <mxCell id="YsGYTtXpXToWJOdHxNEK-144" value="" style="swimlane;startSize=0;dashed=1;" vertex="1" parent="YsGYTtXpXToWJOdHxNEK-75">
          <mxGeometry x="163.97000000000003" y="33" width="89" height="111" as="geometry" />
        </mxCell>
        <mxCell id="YsGYTtXpXToWJOdHxNEK-145" value="loki-write" style="text;html=1;strokeColor=none;fillColor=none;align=center;verticalAlign=middle;whiteSpace=wrap;rounded=0;dashed=1;" vertex="1" parent="YsGYTtXpXToWJOdHxNEK-144">
          <mxGeometry x="8.5" y="77.5" width="75.02" height="30" as="geometry" />
        </mxCell>
        <mxCell id="YsGYTtXpXToWJOdHxNEK-208" value="" style="swimlane;startSize=0;dashed=1;" vertex="1" parent="YsGYTtXpXToWJOdHxNEK-75">
          <mxGeometry x="294.47" y="31" width="89" height="111" as="geometry" />
        </mxCell>
        <mxCell id="YsGYTtXpXToWJOdHxNEK-209" value="loki-read" style="text;html=1;strokeColor=none;fillColor=none;align=center;verticalAlign=middle;whiteSpace=wrap;rounded=0;dashed=1;" vertex="1" parent="YsGYTtXpXToWJOdHxNEK-208">
          <mxGeometry x="8.5" y="77.5" width="75.02" height="30" as="geometry" />
        </mxCell>
        <mxCell id="YsGYTtXpXToWJOdHxNEK-210" value="" style="swimlane;startSize=0;dashed=1;" vertex="1" parent="YsGYTtXpXToWJOdHxNEK-20">
          <mxGeometry x="591" y="551" width="420" height="411" as="geometry">
            <mxRectangle x="1450" y="540" width="50" height="40" as="alternateBounds" />
          </mxGeometry>
        </mxCell>
        <mxCell id="YsGYTtXpXToWJOdHxNEK-211" value="" style="swimlane;startSize=0;dashed=1;" vertex="1" parent="YsGYTtXpXToWJOdHxNEK-210">
          <mxGeometry x="163" y="135.5" width="89" height="115" as="geometry">
            <mxRectangle x="1480" y="436" width="50" height="40" as="alternateBounds" />
          </mxGeometry>
        </mxCell>
        <mxCell id="YsGYTtXpXToWJOdHxNEK-212" value="app2" style="text;html=1;strokeColor=none;fillColor=none;align=center;verticalAlign=middle;whiteSpace=wrap;rounded=0;dashed=1;" vertex="1" parent="YsGYTtXpXToWJOdHxNEK-211">
          <mxGeometry x="6.990000000000009" y="85" width="75.02" height="30" as="geometry" />
        </mxCell>
        <mxCell id="YsGYTtXpXToWJOdHxNEK-214" value="app2" style="text;html=1;strokeColor=none;fillColor=none;align=center;verticalAlign=middle;whiteSpace=wrap;rounded=0;dashed=1;" vertex="1" parent="YsGYTtXpXToWJOdHxNEK-210">
          <mxGeometry x="160.48000000000002" y="4" width="75.02" height="30" as="geometry" />
        </mxCell>
        <mxCell id="YsGYTtXpXToWJOdHxNEK-19" value="Amazon ECS" style="sketch=0;outlineConnect=0;fontColor=#232F3E;gradientColor=none;strokeColor=#ffffff;fillColor=#232F3E;dashed=0;verticalLabelPosition=middle;verticalAlign=bottom;align=center;html=1;whiteSpace=wrap;fontSize=10;fontStyle=1;spacing=3;shape=mxgraph.aws4.productIcon;prIcon=mxgraph.aws4.ecs;" vertex="1" parent="YsGYTtXpXToWJOdHxNEK-10">
          <mxGeometry x="419" y="297" width="80" height="100" as="geometry" />
        </mxCell>
        <mxCell id="YsGYTtXpXToWJOdHxNEK-27" value="" style="sketch=0;outlineConnect=0;fontColor=#232F3E;gradientColor=none;fillColor=#D45B07;strokeColor=none;dashed=0;verticalLabelPosition=bottom;verticalAlign=top;align=center;html=1;fontSize=12;fontStyle=0;aspect=fixed;pointerEvents=1;shape=mxgraph.aws4.ecs_service;" vertex="1" parent="YsGYTtXpXToWJOdHxNEK-10">
          <mxGeometry x="806.9999999999999" y="470" width="47.94" height="59" as="geometry" />
        </mxCell>
        <mxCell id="YsGYTtXpXToWJOdHxNEK-25" value="" style="sketch=0;outlineConnect=0;fontColor=#232F3E;gradientColor=none;fillColor=#D45B07;strokeColor=none;dashed=0;verticalLabelPosition=bottom;verticalAlign=top;align=center;html=1;fontSize=12;fontStyle=0;aspect=fixed;pointerEvents=1;shape=mxgraph.aws4.ecs_service;" vertex="1" parent="YsGYTtXpXToWJOdHxNEK-10">
          <mxGeometry x="580" y="468.75" width="49.97" height="61.5" as="geometry" />
        </mxCell>
        <mxCell id="YsGYTtXpXToWJOdHxNEK-41" value="" style="sketch=0;outlineConnect=0;fontColor=#232F3E;gradientColor=none;fillColor=#D45B07;strokeColor=none;dashed=0;verticalLabelPosition=bottom;verticalAlign=top;align=center;html=1;fontSize=12;fontStyle=0;aspect=fixed;pointerEvents=1;shape=mxgraph.aws4.ecs_service;" vertex="1" parent="YsGYTtXpXToWJOdHxNEK-10">
          <mxGeometry x="1046" y="461" width="49.97" height="61.5" as="geometry" />
        </mxCell>
        <mxCell id="YsGYTtXpXToWJOdHxNEK-42" value="" style="sketch=0;outlineConnect=0;fontColor=#232F3E;gradientColor=none;fillColor=#D45B07;strokeColor=none;dashed=0;verticalLabelPosition=bottom;verticalAlign=top;align=center;html=1;fontSize=12;fontStyle=0;aspect=fixed;pointerEvents=1;shape=mxgraph.aws4.ecs_service;" vertex="1" parent="YsGYTtXpXToWJOdHxNEK-10">
          <mxGeometry x="1156.03" y="463.5" width="47.94" height="59" as="geometry" />
        </mxCell>
        <mxCell id="YsGYTtXpXToWJOdHxNEK-44" value="" style="sketch=0;outlineConnect=0;fontColor=#232F3E;gradientColor=none;fillColor=#D45B07;strokeColor=none;dashed=0;verticalLabelPosition=bottom;verticalAlign=top;align=center;html=1;fontSize=12;fontStyle=0;aspect=fixed;pointerEvents=1;shape=mxgraph.aws4.ecs_service;" vertex="1" parent="YsGYTtXpXToWJOdHxNEK-10">
          <mxGeometry x="1260" y="463.5" width="47.94" height="59" as="geometry" />
        </mxCell>
        <mxCell id="YsGYTtXpXToWJOdHxNEK-39" value="" style="swimlane;startSize=0;dashed=1;" vertex="1" parent="YsGYTtXpXToWJOdHxNEK-10">
          <mxGeometry x="990" y="397" width="420" height="411" as="geometry">
            <mxRectangle x="997" y="541" width="50" height="40" as="alternateBounds" />
          </mxGeometry>
        </mxCell>
        <mxCell id="YsGYTtXpXToWJOdHxNEK-134" value="aggua-staging" style="text;html=1;strokeColor=none;fillColor=none;align=center;verticalAlign=middle;whiteSpace=wrap;rounded=0;dashed=1;" vertex="1" parent="YsGYTtXpXToWJOdHxNEK-39">
          <mxGeometry x="110" y="3" width="180" height="30" as="geometry" />
        </mxCell>
        <mxCell id="YsGYTtXpXToWJOdHxNEK-104" value="" style="swimlane;startSize=0;dashed=1;" vertex="1" parent="YsGYTtXpXToWJOdHxNEK-10">
          <mxGeometry x="786.47" y="444" width="89" height="115" as="geometry" />
        </mxCell>
        <mxCell id="YsGYTtXpXToWJOdHxNEK-112" value="lineage-prod" style="text;html=1;strokeColor=none;fillColor=none;align=center;verticalAlign=middle;whiteSpace=wrap;rounded=0;dashed=1;" vertex="1" parent="YsGYTtXpXToWJOdHxNEK-104">
          <mxGeometry x="6.990000000000009" y="85" width="75.02" height="30" as="geometry" />
        </mxCell>
        <mxCell id="YsGYTtXpXToWJOdHxNEK-36" value="" style="sketch=0;outlineConnect=0;fontColor=#232F3E;gradientColor=none;fillColor=#D45B07;strokeColor=none;dashed=0;verticalLabelPosition=bottom;verticalAlign=top;align=center;html=1;fontSize=12;fontStyle=0;aspect=fixed;pointerEvents=1;shape=mxgraph.aws4.ecs_service;" vertex="1" parent="YsGYTtXpXToWJOdHxNEK-10">
          <mxGeometry x="580" y="710" width="49.97" height="61.5" as="geometry" />
        </mxCell>
        <mxCell id="YsGYTtXpXToWJOdHxNEK-107" value="" style="swimlane;startSize=0;dashed=1;" vertex="1" parent="YsGYTtXpXToWJOdHxNEK-10">
          <mxGeometry x="560.48" y="690" width="89" height="111" as="geometry" />
        </mxCell>
        <mxCell id="YsGYTtXpXToWJOdHxNEK-116" value="IS-prod" style="text;html=1;strokeColor=none;fillColor=none;align=center;verticalAlign=middle;whiteSpace=wrap;rounded=0;dashed=1;" vertex="1" parent="YsGYTtXpXToWJOdHxNEK-107">
          <mxGeometry x="8.5" y="77.5" width="75.02" height="30" as="geometry" />
        </mxCell>
        <mxCell id="YsGYTtXpXToWJOdHxNEK-113" value="elastic-feeder-prod" style="text;html=1;strokeColor=none;fillColor=none;align=center;verticalAlign=middle;whiteSpace=wrap;rounded=0;dashed=1;" vertex="1" parent="YsGYTtXpXToWJOdHxNEK-10">
          <mxGeometry x="567.48" y="651.5" width="75.02" height="30" as="geometry" />
        </mxCell>
        <mxCell id="YsGYTtXpXToWJOdHxNEK-46" value="" style="sketch=0;outlineConnect=0;fontColor=#232F3E;gradientColor=none;fillColor=#D45B07;strokeColor=none;dashed=0;verticalLabelPosition=bottom;verticalAlign=top;align=center;html=1;fontSize=12;fontStyle=0;aspect=fixed;pointerEvents=1;shape=mxgraph.aws4.ecs_service;" vertex="1" parent="YsGYTtXpXToWJOdHxNEK-10">
          <mxGeometry x="1164" y="700" width="49.97" height="61.5" as="geometry" />
        </mxCell>
        <mxCell id="YsGYTtXpXToWJOdHxNEK-135" value="aggua-prod" style="text;html=1;strokeColor=none;fillColor=none;align=center;verticalAlign=middle;whiteSpace=wrap;rounded=0;dashed=1;" vertex="1" parent="YsGYTtXpXToWJOdHxNEK-10">
          <mxGeometry x="649.48" y="404" width="140" height="30" as="geometry" />
        </mxCell>
        <mxCell id="YsGYTtXpXToWJOdHxNEK-45" value="" style="sketch=0;outlineConnect=0;fontColor=#232F3E;gradientColor=none;fillColor=#D45B07;strokeColor=none;dashed=0;verticalLabelPosition=bottom;verticalAlign=top;align=center;html=1;fontSize=12;fontStyle=0;aspect=fixed;pointerEvents=1;shape=mxgraph.aws4.ecs_service;" vertex="1" parent="YsGYTtXpXToWJOdHxNEK-10">
          <mxGeometry x="1155.01" y="580" width="49.97" height="61.5" as="geometry" />
        </mxCell>
        <mxCell id="YsGYTtXpXToWJOdHxNEK-141" value="iamops-monitoring" style="text;html=1;strokeColor=none;fillColor=none;align=center;verticalAlign=middle;whiteSpace=wrap;rounded=0;dashed=1;" vertex="1" parent="YsGYTtXpXToWJOdHxNEK-10">
          <mxGeometry x="679.48" y="870" width="110" height="30" as="geometry" />
        </mxCell>
        <mxCell id="YsGYTtXpXToWJOdHxNEK-77" value="" style="sketch=0;outlineConnect=0;fontColor=#232F3E;gradientColor=none;fillColor=#D45B07;strokeColor=none;dashed=0;verticalLabelPosition=bottom;verticalAlign=top;align=center;html=1;fontSize=12;fontStyle=0;aspect=fixed;pointerEvents=1;shape=mxgraph.aws4.ecs_service;" vertex="1" parent="YsGYTtXpXToWJOdHxNEK-10">
          <mxGeometry x="580" y="920.75" width="49.97" height="61.5" as="geometry" />
        </mxCell>
        <mxCell id="YsGYTtXpXToWJOdHxNEK-80" value="" style="sketch=0;outlineConnect=0;fontColor=#232F3E;gradientColor=none;fillColor=#D45B07;strokeColor=none;dashed=0;verticalLabelPosition=bottom;verticalAlign=top;align=center;html=1;fontSize=12;fontStyle=0;aspect=fixed;pointerEvents=1;shape=mxgraph.aws4.ecs_service;" vertex="1" parent="YsGYTtXpXToWJOdHxNEK-10">
          <mxGeometry x="839.9999999999999" y="920.75" width="47.94" height="59" as="geometry" />
        </mxCell>
        <mxCell id="YsGYTtXpXToWJOdHxNEK-213" value="" style="sketch=0;outlineConnect=0;fontColor=#232F3E;gradientColor=none;fillColor=#D45B07;strokeColor=none;dashed=0;verticalLabelPosition=bottom;verticalAlign=top;align=center;html=1;fontSize=12;fontStyle=0;aspect=fixed;pointerEvents=1;shape=mxgraph.aws4.ecs_service;" vertex="1" parent="YsGYTtXpXToWJOdHxNEK-10">
          <mxGeometry x="1190" y="1020" width="49.97" height="61.5" as="geometry" />
        </mxCell>
        <mxCell id="YsGYTtXpXToWJOdHxNEK-48" value="" style="swimlane;startSize=0;dashed=1;" vertex="1" parent="1">
          <mxGeometry x="1467" y="526" width="420" height="411" as="geometry">
            <mxRectangle x="1450" y="540" width="50" height="40" as="alternateBounds" />
          </mxGeometry>
        </mxCell>
        <mxCell id="YsGYTtXpXToWJOdHxNEK-136" value="" style="swimlane;startSize=0;dashed=1;" vertex="1" parent="YsGYTtXpXToWJOdHxNEK-48">
          <mxGeometry x="163" y="135.5" width="89" height="115" as="geometry">
            <mxRectangle x="1480" y="436" width="50" height="40" as="alternateBounds" />
          </mxGeometry>
        </mxCell>
        <mxCell id="YsGYTtXpXToWJOdHxNEK-137" value="admin-bro" style="text;html=1;strokeColor=none;fillColor=none;align=center;verticalAlign=middle;whiteSpace=wrap;rounded=0;dashed=1;" vertex="1" parent="YsGYTtXpXToWJOdHxNEK-136">
          <mxGeometry x="6.990000000000009" y="85" width="75.02" height="30" as="geometry" />
        </mxCell>
        <mxCell id="YsGYTtXpXToWJOdHxNEK-50" value="" style="sketch=0;outlineConnect=0;fontColor=#232F3E;gradientColor=none;fillColor=#D45B07;strokeColor=none;dashed=0;verticalLabelPosition=bottom;verticalAlign=top;align=center;html=1;fontSize=12;fontStyle=0;aspect=fixed;pointerEvents=1;shape=mxgraph.aws4.ecs_service;" vertex="1" parent="YsGYTtXpXToWJOdHxNEK-136">
          <mxGeometry x="19.50999999999999" y="26.75" width="49.97" height="61.5" as="geometry" />
        </mxCell>
        <mxCell id="YsGYTtXpXToWJOdHxNEK-140" value="admin-bro" style="text;html=1;strokeColor=none;fillColor=none;align=center;verticalAlign=middle;whiteSpace=wrap;rounded=0;dashed=1;" vertex="1" parent="YsGYTtXpXToWJOdHxNEK-48">
          <mxGeometry x="160.48000000000002" y="4" width="75.02" height="30" as="geometry" />
        </mxCell>
        <mxCell id="YsGYTtXpXToWJOdHxNEK-118" value="" style="swimlane;startSize=0;dashed=1;" vertex="1" parent="1">
          <mxGeometry x="1036" y="569" width="90" height="115" as="geometry" />
        </mxCell>
        <mxCell id="YsGYTtXpXToWJOdHxNEK-119" value="api-env-stag" style="text;html=1;strokeColor=none;fillColor=none;align=center;verticalAlign=middle;whiteSpace=wrap;rounded=0;dashed=1;" vertex="1" parent="YsGYTtXpXToWJOdHxNEK-118">
          <mxGeometry x="8.98" y="85" width="75.02" height="30" as="geometry" />
        </mxCell>
        <mxCell id="YsGYTtXpXToWJOdHxNEK-120" value="" style="swimlane;startSize=0;dashed=1;" vertex="1" parent="1">
          <mxGeometry x="1154.47" y="569" width="89" height="115" as="geometry" />
        </mxCell>
        <mxCell id="YsGYTtXpXToWJOdHxNEK-121" value="IMS-stag" style="text;html=1;strokeColor=none;fillColor=none;align=center;verticalAlign=middle;whiteSpace=wrap;rounded=0;dashed=1;" vertex="1" parent="YsGYTtXpXToWJOdHxNEK-120">
          <mxGeometry x="6.990000000000009" y="85" width="75.02" height="30" as="geometry" />
        </mxCell>
        <mxCell id="YsGYTtXpXToWJOdHxNEK-122" value="" style="swimlane;startSize=0;dashed=1;" vertex="1" parent="1">
          <mxGeometry x="1036" y="695.25" width="89" height="111" as="geometry" />
        </mxCell>
        <mxCell id="YsGYTtXpXToWJOdHxNEK-43" value="" style="sketch=0;outlineConnect=0;fontColor=#232F3E;gradientColor=none;fillColor=#D45B07;strokeColor=none;dashed=1;verticalLabelPosition=bottom;verticalAlign=top;align=center;html=1;fontSize=12;fontStyle=0;aspect=fixed;pointerEvents=1;shape=mxgraph.aws4.ecs_service;" vertex="1" parent="YsGYTtXpXToWJOdHxNEK-122">
          <mxGeometry x="20.00999999999999" y="16.75" width="49.97" height="61.5" as="geometry" />
        </mxCell>
        <mxCell id="YsGYTtXpXToWJOdHxNEK-123" value="" style="swimlane;startSize=0;dashed=1;" vertex="1" parent="1">
          <mxGeometry x="1155.49" y="695.25" width="89" height="111" as="geometry" />
        </mxCell>
        <mxCell id="YsGYTtXpXToWJOdHxNEK-124" value="db-worker-stag" style="text;html=1;strokeColor=none;fillColor=none;align=center;verticalAlign=middle;whiteSpace=wrap;rounded=0;dashed=1;" vertex="1" parent="YsGYTtXpXToWJOdHxNEK-123">
          <mxGeometry x="13.48" y="80.25" width="66.52" height="30" as="geometry" />
        </mxCell>
        <mxCell id="YsGYTtXpXToWJOdHxNEK-125" value="" style="swimlane;startSize=0;dashed=1;" vertex="1" parent="1">
          <mxGeometry x="1156.48" y="815" width="89" height="111" as="geometry" />
        </mxCell>
        <mxCell id="YsGYTtXpXToWJOdHxNEK-126" value="redis-stag" style="text;html=1;strokeColor=none;fillColor=none;align=center;verticalAlign=middle;whiteSpace=wrap;rounded=0;dashed=1;" vertex="1" parent="YsGYTtXpXToWJOdHxNEK-125">
          <mxGeometry x="8.240000000000009" y="79.5" width="75.02" height="30" as="geometry" />
        </mxCell>
        <mxCell id="YsGYTtXpXToWJOdHxNEK-127" value="" style="swimlane;startSize=0;dashed=1;" vertex="1" parent="1">
          <mxGeometry x="1266.48" y="696.25" width="90" height="105.75" as="geometry" />
        </mxCell>
        <mxCell id="YsGYTtXpXToWJOdHxNEK-128" value="db-watcher-stag" style="text;html=1;strokeColor=none;fillColor=none;align=center;verticalAlign=middle;whiteSpace=wrap;rounded=0;dashed=1;" vertex="1" parent="YsGYTtXpXToWJOdHxNEK-127">
          <mxGeometry x="-4.01" y="78.75" width="100" height="30" as="geometry" />
        </mxCell>
        <mxCell id="YsGYTtXpXToWJOdHxNEK-47" value="" style="sketch=0;outlineConnect=0;fontColor=#232F3E;gradientColor=none;fillColor=#D45B07;strokeColor=none;dashed=0;verticalLabelPosition=bottom;verticalAlign=top;align=center;html=1;fontSize=12;fontStyle=0;aspect=fixed;pointerEvents=1;shape=mxgraph.aws4.ecs_service;" vertex="1" parent="YsGYTtXpXToWJOdHxNEK-127">
          <mxGeometry x="21.00999999999999" y="13.75" width="49.97" height="61.5" as="geometry" />
        </mxCell>
        <mxCell id="YsGYTtXpXToWJOdHxNEK-129" value="" style="swimlane;startSize=0;dashed=1;" vertex="1" parent="1">
          <mxGeometry x="1262.47" y="569" width="89" height="115" as="geometry" />
        </mxCell>
        <mxCell id="YsGYTtXpXToWJOdHxNEK-130" value="lineage-stag" style="text;html=1;strokeColor=none;fillColor=none;align=center;verticalAlign=middle;whiteSpace=wrap;rounded=0;dashed=1;" vertex="1" parent="YsGYTtXpXToWJOdHxNEK-129">
          <mxGeometry x="6.990000000000009" y="85" width="75.02" height="30" as="geometry" />
        </mxCell>
        <mxCell id="YsGYTtXpXToWJOdHxNEK-131" value="" style="swimlane;startSize=0;dashed=1;" vertex="1" parent="1">
          <mxGeometry x="1036.48" y="815" width="89" height="111" as="geometry" />
        </mxCell>
        <mxCell id="YsGYTtXpXToWJOdHxNEK-132" value="IS-stag" style="text;html=1;strokeColor=none;fillColor=none;align=center;verticalAlign=middle;whiteSpace=wrap;rounded=0;dashed=1;" vertex="1" parent="YsGYTtXpXToWJOdHxNEK-131">
          <mxGeometry x="8.5" y="77.5" width="75.02" height="30" as="geometry" />
        </mxCell>
        <mxCell id="YsGYTtXpXToWJOdHxNEK-40" value="" style="sketch=0;outlineConnect=0;fontColor=#232F3E;gradientColor=none;fillColor=#D45B07;strokeColor=none;dashed=0;verticalLabelPosition=bottom;verticalAlign=top;align=center;html=1;fontSize=12;fontStyle=0;aspect=fixed;pointerEvents=1;shape=mxgraph.aws4.ecs_service;" vertex="1" parent="YsGYTtXpXToWJOdHxNEK-131">
          <mxGeometry x="19.529999999999973" y="16" width="49.97" height="61.5" as="geometry" />
        </mxCell>
        <mxCell id="YsGYTtXpXToWJOdHxNEK-133" value="elastic-feeder-stag" style="text;html=1;strokeColor=none;fillColor=none;align=center;verticalAlign=middle;whiteSpace=wrap;rounded=0;dashed=1;" vertex="1" parent="1">
          <mxGeometry x="1048.48" y="775.5" width="75.02" height="30" as="geometry" />
        </mxCell>
      </root>
    </mxGraphModel>
  </diagram>
</mxfile>
